<svg xmlns="http://www.w3.org/2000/svg" viewBox="0 0 800 800" font-family="sans-serif">
  <rect x="0" y="0" width="800" height="800" fill="#FFFFFF"/>

  <!-- reusable little robot face (white, drawn on a node) -->
  <defs>
    <g id="botface">
      <line x1="0" y1="-30" x2="0" y2="-40" stroke="#FFFFFF" stroke-width="3"/>
      <circle cx="0" cy="-44" r="4.5" fill="#FFFFFF"/>
      <circle cx="-14" cy="-5" r="7" fill="#FFFFFF"/>
      <circle cx="14" cy="-5" r="7" fill="#FFFFFF"/>
      <path d="M -16 15 Q 0 30 16 15" stroke="#FFFFFF" stroke-width="4" fill="none" stroke-linecap="round"/>
    </g>
  </defs>

  <!-- ================= NETWORK EDGES (behind nodes) ================= -->
  <!-- node centers: A(330,250) B(535,395) C(455,635) D(205,635) E(125,395) -->
  <g stroke="#9AA0A7" stroke-width="3">
    <line x1="330" y1="250" x2="535" y2="395"/>
    <line x1="330" y1="250" x2="455" y2="635"/>
    <line x1="330" y1="250" x2="205" y2="635"/>
    <line x1="330" y1="250" x2="125" y2="395"/>
    <line x1="535" y1="395" x2="455" y2="635"/>
    <line x1="535" y1="395" x2="125" y2="395"/>
    <line x1="455" y1="635" x2="205" y2="635"/>
    <line x1="205" y1="635" x2="125" y2="395"/>
  </g>

  <!-- ================= AGENT NODES (robot on each) ================= -->
  <g stroke="#212020" stroke-width="2.5">
    <circle cx="330" cy="250" r="46" fill="#3E5496"/>
    <circle cx="535" cy="395" r="46" fill="#3E5496"/>
    <circle cx="455" cy="635" r="46" fill="#3E5496"/>
    <circle cx="205" cy="635" r="46" fill="#3E5496"/>
    <circle cx="125" cy="395" r="46" fill="#3E5496"/>
  </g>
  <use href="#botface" transform="translate(330,250)"/>
  <use href="#botface" transform="translate(535,395)"/>
  <use href="#botface" transform="translate(455,635)"/>
  <use href="#botface" transform="translate(205,635)"/>
  <use href="#botface" transform="translate(125,395)"/>

  <!-- ID labels, placed just outside each node -->
  <g fill="#212020" font-size="30" font-weight="bold" text-anchor="middle" dominant-baseline="central">
    <text x="330" y="188">A</text>
    <text x="600" y="395">B</text>
    <text x="455" y="697">C</text>
    <text x="205" y="697">D</text>
    <text x="60"  y="395">E</text>
  </g>

  <!-- ================= SPEECH BUBBLE (callout on focal agent A) ================= -->
  <polygon points="480,205 372,232 462,268" fill="#CCEEF9" stroke="#3E5496" stroke-width="3"/>
  <rect x="470" y="55" width="290" height="215" rx="20" ry="20" fill="#CCEEF9" stroke="#3E5496" stroke-width="3"/>
  <rect x="473" y="58" width="284" height="18" fill="#CCEEF9"/>

  <!-- bubble header -->
  <g text-anchor="middle" font-weight="bold" fill="#212020" font-size="26">
    <text x="545" y="100">User</text>
    <text x="690" y="100">Opinion</text>
  </g>
  <line x1="490" y1="115" x2="740" y2="115" stroke="#3E5496" stroke-width="2"/>
  <line x1="615" y1="90" x2="615" y2="250" stroke="#9AA0A7" stroke-width="1.5"/>

  <!-- bubble rows: opinions are X / Y -->
  <g font-size="26" fill="#212020" text-anchor="middle">
    <text x="545" y="152">B</text><text x="690" y="152">X</text>
    <text x="545" y="187">C</text><text x="690" y="187">X</text>
    <text x="545" y="222">D</text><text x="690" y="222">Y</text>
    <text x="545" y="257">E</text><text x="690" y="257">X</text>
  </g>

  <!-- ================= CAPTION ================= -->
  <g text-anchor="middle" fill="#212020">
    <text x="400" y="730" font-size="27" font-weight="bold">Each agent observes everyone's opinions,</text>
    <text x="400" y="765" font-size="27" font-weight="bold">then states its own.</text>
  </g>
</svg>
