<svg xmlns="http://www.w3.org/2000/svg" viewBox="0 0 800 800" font-family="sans-serif">
  <!-- white background -->
  <rect x="0" y="0" width="800" height="800" fill="#FFFFFF"/>

  <!-- ================= NETWORK EDGES (behind nodes) ================= -->
  <!-- node centers: A(330,250) B(535,395) C(455,635) D(205,635) E(125,395) -->
  <g stroke="#9AA0A7" stroke-width="3">
    <line x1="330" y1="250" x2="535" y2="395"/>
    <line x1="330" y1="250" x2="455" y2="635"/>
    <line x1="330" y1="250" x2="205" y2="635"/>
    <line x1="330" y1="250" x2="125" y2="395"/>
    <line x1="535" y1="395" x2="455" y2="635"/>
    <line x1="535" y1="395" x2="125" y2="395"/>
    <line x1="455" y1="635" x2="205" y2="635"/>
    <line x1="205" y1="635" x2="125" y2="395"/>
  </g>

  <!-- ================= AGENT NODES ================= -->
  <g stroke="#212020" stroke-width="2.5">
    <circle cx="330" cy="250" r="46" fill="#3E5496"/>
    <circle cx="535" cy="395" r="46" fill="#3E5496"/>
    <circle cx="455" cy="635" r="46" fill="#3E5496"/>
    <circle cx="205" cy="635" r="46" fill="#3E5496"/>
    <circle cx="125" cy="395" r="46" fill="#3E5496"/>
  </g>
  <g fill="#FFFFFF" font-size="42" font-weight="bold" text-anchor="middle" dominant-baseline="central">
    <text x="330" y="250">A</text>
    <text x="535" y="395">B</text>
    <text x="455" y="635">C</text>
    <text x="205" y="635">D</text>
    <text x="125" y="395">E</text>
  </g>

  <!-- ================= SPEECH BUBBLE (callout on focal agent A) ================= -->
  <!-- tail from bubble to node A -->
  <polygon points="480,205 372,232 462,268" fill="#CCEEF9" stroke="#3E5496" stroke-width="3"/>
  <rect x="470" y="55" width="290" height="215" rx="20" ry="20" fill="#CCEEF9" stroke="#3E5496" stroke-width="3"/>
  <!-- mask the tail's top edge overlap with bubble body -->
  <rect x="473" y="58" width="284" height="18" fill="#CCEEF9"/>

  <!-- bubble header -->
  <g text-anchor="middle" font-weight="bold" fill="#212020" font-size="26">
    <text x="545" y="100">User</text>
    <text x="690" y="100">Opinion</text>
  </g>
  <line x1="490" y1="115" x2="740" y2="115" stroke="#3E5496" stroke-width="2"/>
  <!-- column separator -->
  <line x1="615" y1="90" x2="615" y2="250" stroke="#9AA0A7" stroke-width="1.5"/>

  <!-- bubble rows -->
  <g font-size="26" fill="#212020" text-anchor="middle">
    <text x="545" y="152">B</text><text x="690" y="152">A</text>
    <text x="545" y="187">C</text><text x="690" y="187">A</text>
    <text x="545" y="222">D</text><text x="690" y="222">B</text>
    <text x="545" y="257">E</text><text x="690" y="257">A</text>
  </g>

  <!-- ================= CAPTION ================= -->
  <g text-anchor="middle" fill="#212020">
    <text x="400" y="730" font-size="27" font-weight="bold">Each agent observes everyone's opinions,</text>
    <text x="400" y="765" font-size="27" font-weight="bold">then states its own.</text>
  </g>
</svg>
