<svg xmlns="http://www.w3.org/2000/svg" viewBox="0 0 1000 720" font-family="sans-serif">
<rect x="0" y="0" width="1000" height="720" fill="#FFFFFF"/>
<defs>
<radialGradient id="glow" cx="50%" cy="50%" r="50%">
<stop offset="0%" stop-color="#59C7EB" stop-opacity="0.55"/>
<stop offset="45%" stop-color="#59C7EB" stop-opacity="0.30"/>
<stop offset="100%" stop-color="#59C7EB" stop-opacity="0"/>
</radialGradient>
</defs>
<path d="M 304.3 227.0 A 226 226 0 0 1 695.7 227.0" fill="none" stroke="#077187" stroke-width="2.2" opacity="0.75"/>
<path d="M 714.9 270.2 A 226 226 0 0 1 453.0 561.1" fill="none" stroke="#9AA0A7" stroke-width="2.0" opacity="0.85"/>
<path d="M 285.1 409.8 A 226 226 0 0 0 285.1 270.2" fill="none" stroke="#9AA0A7" stroke-width="2.0" opacity="0.85"/>
<circle cx="500" cy="340" r="142" fill="url(#glow)"/>
<line x1="500" y1="340" x2="500.0" y2="192.0" stroke="#077187" stroke-width="1.6" opacity="0.7"/>
<line x1="500" y1="340" x2="574.0" y2="211.8" stroke="#077187" stroke-width="1.6" opacity="0.7"/>
<line x1="500" y1="340" x2="628.2" y2="266.0" stroke="#077187" stroke-width="1.6" opacity="0.7"/>
<line x1="500" y1="340" x2="648.0" y2="340.0" stroke="#077187" stroke-width="1.6" opacity="0.7"/>
<line x1="500" y1="340" x2="628.2" y2="414.0" stroke="#077187" stroke-width="1.6" opacity="0.7"/>
<line x1="500" y1="340" x2="574.0" y2="468.2" stroke="#077187" stroke-width="1.6" opacity="0.7"/>
<line x1="500" y1="340" x2="500.0" y2="488.0" stroke="#077187" stroke-width="1.6" opacity="0.7"/>
<line x1="500" y1="340" x2="426.0" y2="468.2" stroke="#077187" stroke-width="1.6" opacity="0.7"/>
<line x1="500" y1="340" x2="371.8" y2="414.0" stroke="#077187" stroke-width="1.6" opacity="0.7"/>
<line x1="500" y1="340" x2="352.0" y2="340.0" stroke="#077187" stroke-width="1.6" opacity="0.7"/>
<line x1="500" y1="340" x2="371.8" y2="266.0" stroke="#077187" stroke-width="1.6" opacity="0.7"/>
<line x1="500" y1="340" x2="426.0" y2="211.8" stroke="#077187" stroke-width="1.6" opacity="0.7"/>
<circle cx="500.0" cy="192.0" r="27" fill="#FFFFFF" stroke="#3E5496" stroke-width="2.5"/>
<g transform="translate(500.0,192.0)"><g fill="none" stroke="#077187" stroke-width="2.2" stroke-linecap="round" stroke-linejoin="round"><circle cx="-3" cy="-3" r="7"/><line x1="2.2" y1="2.2" x2="9" y2="9"/></g></g>
<circle cx="574.0" cy="211.8" r="27" fill="#FFFFFF" stroke="#3E5496" stroke-width="2.5"/>
<g transform="translate(574.0,211.8)"><g fill="#3E5496" stroke="none"><rect x="-11" y="1" width="5" height="9" rx="1"/><rect x="-2.5" y="-4" width="5" height="14" rx="1"/><rect x="6" y="-9" width="5" height="19" rx="1"/></g></g>
<circle cx="628.2" cy="266.0" r="27" fill="#FFFFFF" stroke="#3E5496" stroke-width="2.5"/>
<g transform="translate(628.2,266.0)"><g fill="none" stroke="#077187" stroke-width="2.0" stroke-linecap="round" stroke-linejoin="round"><path d="M -10 -8 h 20 a 2 2 0 0 1 2 2 v 10 a 2 2 0 0 1 -2 2 h -13 l -6 5 v -5 h -1 a 2 2 0 0 1 -2 -2 v -10 a 2 2 0 0 1 2 -2 z"/></g></g>
<circle cx="648.0" cy="340.0" r="27" fill="#FFFFFF" stroke="#3E5496" stroke-width="2.5"/>
<g transform="translate(648.0,340.0)"><g fill="none" stroke="#3E5496" stroke-width="2.2" stroke-linecap="round" stroke-linejoin="round"><circle cx="0" cy="0" r="10"/><ellipse cx="0" cy="0" rx="4.2" ry="10"/><line x1="-10" y1="0" x2="10" y2="0"/><line x1="-8.5" y1="-5" x2="8.5" y2="-5"/><line x1="-8.5" y1="5" x2="8.5" y2="5"/></g></g>
<circle cx="628.2" cy="414.0" r="27" fill="#FFFFFF" stroke="#3E5496" stroke-width="2.5"/>
<g transform="translate(628.2,414.0)"><g fill="none" stroke="#077187" stroke-width="2.2" stroke-linecap="round" stroke-linejoin="round"><rect x="-8" y="-8" width="16" height="16" rx="2"/><rect x="-3.5" y="-3.5" width="7" height="7" rx="1"/><line x1="-4" y1="-8" x2="-4" y2="-11"/><line x1="-4" y1="8" x2="-4" y2="11"/><line x1="-8" y1="-4" x2="-11" y2="-4"/><line x1="8" y1="-4" x2="11" y2="-4"/><line x1="4" y1="-8" x2="4" y2="-11"/><line x1="4" y1="8" x2="4" y2="11"/><line x1="-8" y1="4" x2="-11" y2="4"/><line x1="8" y1="4" x2="11" y2="4"/></g></g>
<circle cx="574.0" cy="468.2" r="27" fill="#FFFFFF" stroke="#3E5496" stroke-width="2.5"/>
<g transform="translate(574.0,468.2)"><g fill="none" stroke="#3E5496" stroke-width="2.2" stroke-linecap="round" stroke-linejoin="round"><path d="M -11 -3 A 15 15 0 0 1 11 -3"/><path d="M -7 2 A 10 10 0 0 1 7 2"/><path d="M -3 7 A 4.5 4.5 0 0 1 3 7"/></g><circle cx="0" cy="10" r="1.8" fill="#3E5496"/></g>
<circle cx="500.0" cy="488.0" r="27" fill="#FFFFFF" stroke="#3E5496" stroke-width="2.5"/>
<g transform="translate(500.0,488.0)"><g fill="none" stroke="#077187" stroke-width="2.2" stroke-linecap="round" stroke-linejoin="round"><path d="M -11 -8 h 3 l 2.5 13 h 12 l 2.5 -9 h -16"/><circle cx="-4" cy="9" r="2"/><circle cx="7" cy="9" r="2"/></g></g>
<circle cx="426.0" cy="468.2" r="27" fill="#FFFFFF" stroke="#3E5496" stroke-width="2.5"/>
<g transform="translate(426.0,468.2)"><g fill="none" stroke="#3E5496" stroke-width="2.2" stroke-linecap="round" stroke-linejoin="round"><path d="M 0 10 C -7 1 -8 -3 -8 -6 A 8 8 0 0 1 8 -6 C 8 -3 7 1 0 10 Z"/><circle cx="0" cy="-6" r="3.2"/></g></g>
<circle cx="371.8" cy="414.0" r="27" fill="#FFFFFF" stroke="#3E5496" stroke-width="2.5"/>
<g transform="translate(371.8,414.0)"><g fill="none" stroke="#077187" stroke-width="2.2" stroke-linecap="round" stroke-linejoin="round"><path d="M -10 0 L 0 -9 L 10 0"/><path d="M -7 -1 V 9 H 7 V -1"/><rect x="-2.5" y="2" width="5" height="7"/></g></g>
<circle cx="352.0" cy="340.0" r="27" fill="#FFFFFF" stroke="#3E5496" stroke-width="2.5"/>
<g transform="translate(352.0,340.0)"><g fill="none" stroke="#3E5496" stroke-width="2.2" stroke-linecap="round" stroke-linejoin="round"><rect x="-11" y="-8" width="22" height="16" rx="2"/><path d="M -11 -6 L 0 3 L 11 -6"/></g></g>
<circle cx="371.8" cy="266.0" r="27" fill="#FFFFFF" stroke="#3E5496" stroke-width="2.5"/>
<g transform="translate(371.8,266.0)"><g fill="none" stroke="#077187" stroke-width="2.2" stroke-linecap="round" stroke-linejoin="round"><circle cx="0" cy="-5" r="5"/><path d="M -9 10 C -9 1 -4 0 0 0 C 4 0 9 1 9 10"/></g></g>
<circle cx="426.0" cy="211.8" r="27" fill="#FFFFFF" stroke="#3E5496" stroke-width="2.5"/>
<g transform="translate(426.0,211.8)"><g fill="none" stroke="#3E5496" stroke-width="2.2" stroke-linecap="round" stroke-linejoin="round"><path d="M 0 -8 L 12 -3 L 0 2 L -12 -3 Z"/><path d="M -7 -1 V 6 C -7 9 7 9 7 6 V -1"/><line x1="12" y1="-3" x2="12" y2="6"/></g></g>
<circle cx="500" cy="340" r="46" fill="#8E2043"/>
<g transform="translate(500,340)"><line x1="0" y1="-30" x2="0" y2="-42" stroke="#FFFFFF" stroke-width="2.5" stroke-linecap="round"/><circle cx="0" cy="-44" r="3.5" fill="#FFFFFF"/><rect x="-26" y="-28" width="52" height="46" rx="12" fill="none" stroke="#FFFFFF" stroke-width="2.8"/><circle cx="-11" cy="-6" r="4.5" fill="#FFFFFF"/><circle cx="11" cy="-6" r="4.5" fill="#FFFFFF"/><path d="M -12 6 Q 0 16 12 6" fill="none" stroke="#FFFFFF" stroke-width="2.8" stroke-linecap="round"/><line x1="-26" y1="-4" x2="-31" y2="-4" stroke="#FFFFFF" stroke-width="2.8" stroke-linecap="round"/><line x1="26" y1="-4" x2="31" y2="-4" stroke="#FFFFFF" stroke-width="2.8" stroke-linecap="round"/></g>
<g transform="translate(60,70)"><rect x="0" y="0" width="52" height="52" rx="4" fill="#FFFFFF" stroke="#3E5496" stroke-width="2.5"/><circle cx="26" cy="22" r="9" fill="none" stroke="#077187" stroke-width="2.2"/><path d="M 14 46 C 14 36 38 36 38 46" fill="none" stroke="#077187" stroke-width="2.2"/><g transform="translate(66,8)"><path d="M 0 4 L 18 -2 L 36 4 V 22 C 36 34 18 42 18 42 C 18 42 0 34 0 22 Z" fill="#59C7EB" fill-opacity="0.25" stroke="#3E5496" stroke-width="2.5"/><path d="M 10 18 L 16 24 L 27 12" fill="none" stroke="#077187" stroke-width="3" stroke-linecap="round" stroke-linejoin="round"/></g><g transform="translate(120,4)" stroke="#3E5496" stroke-width="2.4" stroke-linecap="round" fill="none"><rect x="0" y="0" width="9" height="9" rx="1.5" fill="none"/><path d="M 1.5 5 L 4 8 L 8 2" stroke="#077187"/><line x1="16" y1="6" x2="40" y2="6" stroke="#9AA0A7"/><rect x="0" y="14" width="9" height="9" rx="1.5" fill="none"/><path d="M 1.5 19 L 4 22 L 8 16" stroke="#077187"/><line x1="16" y1="20" x2="40" y2="20" stroke="#9AA0A7"/><rect x="0" y="28" width="9" height="9" rx="1.5" fill="none"/><path d="M 1.5 33 L 4 36 L 8 30" stroke="#077187"/><line x1="16" y1="34" x2="40" y2="34" stroke="#9AA0A7"/></g></g>
<text x="60" y="175" font-size="31" font-weight="bold" fill="#8E2043">DATA</text>
<text x="60" y="205" font-size="20" fill="#212020">Data donation of 6000</text>
<text x="60" y="231" font-size="20" fill="#212020">respondents in 4 EU</text>
<text x="60" y="257" font-size="20" fill="#212020">countries</text>
<g transform="translate(812,40)"><line x1="55" y1="45" x2="55.0" y2="1.0" stroke="#077187" stroke-width="1.6" opacity="0.7"/><line x1="55" y1="45" x2="93.1" y2="23.0" stroke="#077187" stroke-width="1.6" opacity="0.7"/><line x1="55" y1="45" x2="93.1" y2="67.0" stroke="#077187" stroke-width="1.6" opacity="0.7"/><line x1="55" y1="45" x2="55.0" y2="89.0" stroke="#077187" stroke-width="1.6" opacity="0.7"/><line x1="55" y1="45" x2="16.9" y2="67.0" stroke="#077187" stroke-width="1.6" opacity="0.7"/><line x1="55" y1="45" x2="16.9" y2="23.0" stroke="#077187" stroke-width="1.6" opacity="0.7"/><polygon points="55.0,1.0 93.1,23.0 93.1,67.0 55.0,89.0 16.9,67.0 16.9,23.0" fill="none" stroke="#9AA0A7" stroke-width="1.6"/><circle cx="55.0" cy="1.0" r="7" fill="#FFFFFF" stroke="#59C7EB" stroke-width="2.5"/><circle cx="93.1" cy="23.0" r="7" fill="#FFFFFF" stroke="#077187" stroke-width="2.5"/><circle cx="93.1" cy="67.0" r="7" fill="#FFFFFF" stroke="#3E5496" stroke-width="2.5"/><circle cx="55.0" cy="89.0" r="7" fill="#FFFFFF" stroke="#59C7EB" stroke-width="2.5"/><circle cx="16.9" cy="67.0" r="7" fill="#FFFFFF" stroke="#077187" stroke-width="2.5"/><circle cx="16.9" cy="23.0" r="7" fill="#FFFFFF" stroke="#3E5496" stroke-width="2.5"/><circle cx="55" cy="45" r="15" fill="#8E2043"/><circle cx="50" cy="43" r="2.4" fill="#FFFFFF"/><circle cx="60" cy="43" r="2.4" fill="#FFFFFF"/><path d="M 49 50 Q 55 55 61 50" fill="none" stroke="#FFFFFF" stroke-width="2" stroke-linecap="round"/></g>
<text x="720" y="175" font-size="31" font-weight="bold" fill="#8E2043">SIMULATION</text>
<text x="720" y="205" font-size="20" fill="#212020">Simulated digital twin</text>
<text x="720" y="231" font-size="20" fill="#212020">of political information</text>
<text x="720" y="257" font-size="20" fill="#212020">environment</text>
<g transform="translate(150,560)"><rect x="60" y="0" width="70" height="92" rx="4" fill="#FFFFFF" stroke="#3E5496" stroke-width="2.5"/><line x1="72" y1="16" x2="118" y2="16" stroke="#9AA0A7" stroke-width="2.2" stroke-linecap="round"/><line x1="72" y1="30" x2="118" y2="30" stroke="#9AA0A7" stroke-width="2.2" stroke-linecap="round"/><line x1="72" y1="44" x2="118" y2="44" stroke="#9AA0A7" stroke-width="2.2" stroke-linecap="round"/><line x1="72" y1="58" x2="118" y2="58" stroke="#9AA0A7" stroke-width="2.2" stroke-linecap="round"/><g transform="translate(66,-6)" fill="#59C7EB" fill-opacity="0.3" stroke="#077187" stroke-width="2.3" stroke-linejoin="round"><path d="M 0 26 L 0 12 C 0 9 4 9 4 12 L 4 6 C 4 3 8 3 8 6 L 8 4 C 8 1 12 1 12 4 L 12 8 C 12 5 16 5 16 8 L 16 24 C 16 34 10 40 4 38 C 0 36 -4 32 -6 26 C -8 22 -3 20 0 24 Z"/></g><path d="M 40 92 L 150 92 L 162 108 L 28 108 Z" fill="#FFFFFF" stroke="#3E5496" stroke-width="2.5" stroke-linejoin="round"/><line x1="80" y1="100" x2="110" y2="100" stroke="#9AA0A7" stroke-width="2.5" stroke-linecap="round"/><g transform="translate(138,58)"><path d="M 0 4 L 17 -2 L 34 4 V 20 C 34 31 17 39 17 39 C 17 39 0 31 0 20 Z" fill="#8E2043" fill-opacity="0.12" stroke="#8E2043" stroke-width="2.5"/><path d="M 9 17 L 15 23 L 25 11" fill="none" stroke="#077187" stroke-width="3" stroke-linecap="round" stroke-linejoin="round"/></g></g>
<text x="360" y="565" font-size="31" font-weight="bold" fill="#8E2043">INTERVENTIONS</text>
<text x="360" y="595" font-size="20" fill="#212020">Immersive field experiments and</text>
<text x="360" y="621" font-size="20" fill="#212020">societal effect scenarios of</text>
<text x="360" y="647" font-size="20" fill="#212020">simulated policy interventions</text>
</svg>